<svg xmlns="http://www.w3.org/2000/svg" width="1024" height="1024" viewBox="0 0 1024 1024">
  <path d="M 522.00 867.50 L 502.00 867.50 L 473.00 860.50 L 440.00 857.50 L 421.00 848.50 L 391.50 841.00 L 451.00 849.50 L 508.00 850.50 L 452.50 843.00 L 535.00 841.50 L 545.50 839.00 L 532.00 836.50 L 545.00 832.50 L 456.00 836.50 L 421.00 828.50 L 408.00 828.50 L 399.00 823.50 L 387.00 822.50 L 377.00 814.50 L 322.00 793.50 L 311.00 786.50 L 305.00 787.50 L 293.00 777.50 L 273.00 768.50 L 262.50 759.00 L 273.00 762.50 L 269.00 755.50 L 316.50 781.00 L 288.00 757.50 L 277.00 751.50 L 283.50 759.00 L 282.00 760.50 L 270.00 750.50 L 266.00 752.50 L 243.50 737.00 L 241.00 726.50 L 245.00 725.50 L 253.00 733.50 L 252.50 731.00 L 231.50 712.00 L 233.50 710.00 L 206.50 679.00 L 184.00 641.50 L 185.50 648.00 L 182.50 646.00 L 176.50 629.00 L 180.50 630.00 L 165.50 598.00 L 154.50 555.00 L 155.00 545.50 L 160.50 554.00 L 157.50 528.00 L 150.00 513.50 L 149.50 524.00 L 145.50 524.00 L 142.50 503.00 L 137.50 498.00 L 133.50 478.00 L 135.50 430.00 L 142.50 409.00 L 142.50 398.00 L 153.00 384.50 L 152.50 389.00 L 155.00 387.50 L 158.50 392.00 L 157.50 416.00 L 165.00 426.50 L 190.50 362.00 L 191.50 353.00 L 203.50 330.00 L 196.00 339.50 L 195.50 335.00 L 219.50 290.00 L 240.00 269.50 L 230.00 287.50 L 258.50 253.00 L 301.00 213.50 L 370.00 174.50 L 417.50 155.00 L 349.00 178.50 L 345.50 177.00 L 360.00 166.50 L 342.00 174.50 L 339.50 174.00 L 344.00 170.50 L 335.00 170.50 L 372.00 151.50 L 432.00 134.50 L 507.00 133.50 L 508.00 135.50 L 487.00 137.50 L 465.50 145.00 L 493.00 144.50 L 506.00 149.50 L 516.00 149.50 L 521.00 145.50 L 534.00 144.50 L 537.00 148.50 L 523.50 149.00 L 554.00 151.50 L 618.00 164.50 L 642.00 177.50 L 670.00 185.50 L 689.00 196.50 L 690.00 193.50 L 702.00 198.50 L 743.00 221.50 L 744.50 220.00 L 728.00 202.50 L 754.00 223.50 L 788.50 220.00 L 773.00 229.50 L 607.00 299.50 L 594.00 306.50 L 579.50 320.00 L 563.50 350.00 L 475.00 548.50 L 479.50 529.00 L 477.50 482.00 L 426.50 324.00 L 416.00 313.50 L 394.00 307.50 L 290.50 308.00 L 424.50 701.00 L 439.50 737.00 L 449.00 748.50 L 463.00 752.50 L 497.00 738.50 L 511.50 727.00 L 539.50 696.00 L 748.50 298.00 L 769.50 268.00 L 787.00 252.50 L 789.50 259.00 L 787.50 263.00 L 795.50 275.00 L 825.00 309.50 L 828.00 305.50 L 833.50 311.00 L 844.50 340.00 L 855.50 358.00 L 874.50 445.00 L 874.50 532.00 L 869.50 539.00 L 864.50 568.00 L 843.50 629.00 L 804.50 697.00 L 779.50 721.00 L 767.50 737.00 L 777.00 729.50 L 777.50 732.00 L 745.00 765.50 L 700.50 796.00 L 728.00 782.50 L 771.00 753.50 L 766.50 760.00 L 769.00 760.50 L 811.00 726.50 L 806.50 734.00 L 774.00 768.50 L 753.00 785.50 L 670.00 834.50 L 634.00 848.50 L 603.00 853.50 L 587.00 859.50 L 522.00 867.50 Z" fill="#0A7CFF"/>
  <path d="M 465.00 751.50 L 451.00 749.50 L 442.50 741.00 L 433.50 724.00 L 290.50 308.00 L 389.00 307.50 L 413.00 312.50 L 424.50 322.00 L 435.50 348.00 L 477.50 485.00 L 479.50 519.00 L 475.00 549.50 L 516.50 457.00 L 522.50 449.00 L 523.50 441.00 L 563.50 351.00 L 583.50 316.00 L 606.00 300.50 L 770.00 230.50 L 773.00 231.50 L 783.00 224.50 L 786.00 225.50 L 789.50 221.00 L 789.00 212.50 L 806.00 212.50 L 808.50 221.00 L 804.50 233.00 L 788.50 234.00 L 788.50 251.00 L 779.00 256.50 L 765.50 272.00 L 734.50 321.00 L 545.50 686.00 L 530.50 707.00 L 508.00 729.50 L 489.00 742.50 L 465.00 751.50 Z" fill="#FFFFFF"/>
</svg>
